<svg id="visual" viewBox="0 0 1920 950" width="1920" height="950" xmlns="http://www.w3.org/2000/svg" xmlns:xlink="http://www.w3.org/1999/xlink" version="1.1"><rect x="0" y="0" width="1920" height="950" fill="#453F3C"></rect><path d="M0 442L40 448.3C80 454.7 160 467.3 240 470.5C320 473.7 400 467.3 480 466C560 464.7 640 468.3 720 482.5C800 496.7 880 521.3 960 521.8C1040 522.3 1120 498.7 1200 484.2C1280 469.7 1360 464.3 1440 452.8C1520 441.3 1600 423.7 1680 438.8C1760 454 1840 502 1880 526L1920 550L1920 951L1880 951C1840 951 1760 951 1680 951C1600 951 1520 951 1440 951C1360 951 1280 951 1200 951C1120 951 1040 951 960 951C880 951 800 951 720 951C640 951 560 951 480 951C400 951 320 951 240 951C160 951 80 951 40 951L0 951Z" fill="#d17a3f"></path><path d="M0 553L40 561.8C80 570.7 160 588.3 240 587.2C320 586 400 566 480 550.3C560 534.7 640 523.3 720 524.2C800 525 880 538 960 550.5C1040 563 1120 575 1200 578.5C1280 582 1360 577 1440 562.8C1520 548.7 1600 525.3 1680 528.3C1760 531.3 1840 560.7 1880 575.3L1920 590L1920 951L1880 951C1840 951 1760 951 1680 951C1600 951 1520 951 1440 951C1360 951 1280 951 1200 951C1120 951 1040 951 960 951C880 951 800 951 720 951C640 951 560 951 480 951C400 951 320 951 240 951C160 951 80 951 40 951L0 951Z" fill="#da706b"></path><path d="M0 705L40 696.8C80 688.7 160 672.3 240 657.3C320 642.3 400 628.7 480 629.3C560 630 640 645 720 662.5C800 680 880 700 960 702.7C1040 705.3 1120 690.7 1200 674.8C1280 659 1360 642 1440 646.7C1520 651.3 1600 677.7 1680 674.3C1760 671 1840 638 1880 621.5L1920 605L1920 951L1880 951C1840 951 1760 951 1680 951C1600 951 1520 951 1440 951C1360 951 1280 951 1200 951C1120 951 1040 951 960 951C880 951 800 951 720 951C640 951 560 951 480 951C400 951 320 951 240 951C160 951 80 951 40 951L0 951Z" fill="#cc7491"></path><path d="M0 711L40 719C80 727 160 743 240 748.5C320 754 400 749 480 739.7C560 730.3 640 716.7 720 711.2C800 705.7 880 708.3 960 710.8C1040 713.3 1120 715.7 1200 730C1280 744.3 1360 770.7 1440 775.8C1520 781 1600 765 1680 756.8C1760 748.7 1840 748.3 1880 748.2L1920 748L1920 951L1880 951C1840 951 1760 951 1680 951C1600 951 1520 951 1440 951C1360 951 1280 951 1200 951C1120 951 1040 951 960 951C880 951 800 951 720 951C640 951 560 951 480 951C400 951 320 951 240 951C160 951 80 951 40 951L0 951Z" fill="#b07fa8"></path><path d="M0 829L40 829.8C80 830.7 160 832.3 240 832.7C320 833 400 832 480 836.2C560 840.3 640 849.7 720 856.7C800 863.7 880 868.3 960 858C1040 847.7 1120 822.3 1200 810.3C1280 798.3 1360 799.7 1440 802.5C1520 805.3 1600 809.7 1680 822.3C1760 835 1840 856 1880 866.5L1920 877L1920 951L1880 951C1840 951 1760 951 1680 951C1600 951 1520 951 1440 951C1360 951 1280 951 1200 951C1120 951 1040 951 960 951C880 951 800 951 720 951C640 951 560 951 480 951C400 951 320 951 240 951C160 951 80 951 40 951L0 951Z" fill="#9389ae"></path></svg>