<svg id="visual" viewBox="0 0 1920 990" width="1920" height="990" xmlns="http://www.w3.org/2000/svg" xmlns:xlink="http://www.w3.org/1999/xlink" version="1.1"><rect x="0" y="0" width="1920" height="990" fill="#453F3C"></rect><path d="M0 593L40 582.7C80 572.3 160 551.7 240 525.2C320 498.7 400 466.3 480 469.2C560 472 640 510 720 511C800 512 880 476 960 478.2C1040 480.3 1120 520.7 1200 525.2C1280 529.7 1360 498.3 1440 481.7C1520 465 1600 463 1680 458.5C1760 454 1840 447 1880 443.5L1920 440L1920 991L1880 991C1840 991 1760 991 1680 991C1600 991 1520 991 1440 991C1360 991 1280 991 1200 991C1120 991 1040 991 960 991C880 991 800 991 720 991C640 991 560 991 480 991C400 991 320 991 240 991C160 991 80 991 40 991L0 991Z" fill="#7fbeab"></path><path d="M0 536L40 531.3C80 526.7 160 517.3 240 528.7C320 540 400 572 480 590.7C560 609.3 640 614.7 720 621.3C800 628 880 636 960 625C1040 614 1120 584 1200 584.2C1280 584.3 1360 614.7 1440 619.3C1520 624 1600 603 1680 598.8C1760 594.7 1840 607.3 1880 613.7L1920 620L1920 991L1880 991C1840 991 1760 991 1680 991C1600 991 1520 991 1440 991C1360 991 1280 991 1200 991C1120 991 1040 991 960 991C880 991 800 991 720 991C640 991 560 991 480 991C400 991 320 991 240 991C160 991 80 991 40 991L0 991Z" fill="#6db7b7"></path><path d="M0 748L40 744.2C80 740.3 160 732.7 240 714.3C320 696 400 667 480 655.8C560 644.7 640 651.3 720 658.3C800 665.3 880 672.7 960 673.3C1040 674 1120 668 1200 666.7C1280 665.3 1360 668.7 1440 679C1520 689.3 1600 706.7 1680 719.7C1760 732.7 1840 741.3 1880 745.7L1920 750L1920 991L1880 991C1840 991 1760 991 1680 991C1600 991 1520 991 1440 991C1360 991 1280 991 1200 991C1120 991 1040 991 960 991C880 991 800 991 720 991C640 991 560 991 480 991C400 991 320 991 240 991C160 991 80 991 40 991L0 991Z" fill="#69adc0"></path><path d="M0 792L40 794.5C80 797 160 802 240 781.8C320 761.7 400 716.3 480 710.3C560 704.3 640 737.7 720 737.8C800 738 880 705 960 690.2C1040 675.3 1120 678.7 1200 700.7C1280 722.7 1360 763.3 1440 768.7C1520 774 1600 744 1680 732.5C1760 721 1840 728 1880 731.5L1920 735L1920 991L1880 991C1840 991 1760 991 1680 991C1600 991 1520 991 1440 991C1360 991 1280 991 1200 991C1120 991 1040 991 960 991C880 991 800 991 720 991C640 991 560 991 480 991C400 991 320 991 240 991C160 991 80 991 40 991L0 991Z" fill="#72a2c2"></path><path d="M0 843L40 831.5C80 820 160 797 240 795.3C320 793.7 400 813.3 480 816.8C560 820.3 640 807.7 720 806.2C800 804.7 880 814.3 960 817.5C1040 820.7 1120 817.3 1200 823.8C1280 830.3 1360 846.7 1440 856.5C1520 866.3 1600 869.7 1680 863.2C1760 856.7 1840 840.3 1880 832.2L1920 824L1920 991L1880 991C1840 991 1760 991 1680 991C1600 991 1520 991 1440 991C1360 991 1280 991 1200 991C1120 991 1040 991 960 991C880 991 800 991 720 991C640 991 560 991 480 991C400 991 320 991 240 991C160 991 80 991 40 991L0 991Z" fill="#8396bc"></path><path d="M0 862L40 863.2C80 864.3 160 866.7 240 866.8C320 867 400 865 480 874.2C560 883.3 640 903.7 720 913C800 922.3 880 920.7 960 917.5C1040 914.3 1120 909.7 1200 902.8C1280 896 1360 887 1440 891.2C1520 895.3 1600 912.7 1680 909C1760 905.3 1840 880.7 1880 868.3L1920 856L1920 991L1880 991C1840 991 1760 991 1680 991C1600 991 1520 991 1440 991C1360 991 1280 991 1200 991C1120 991 1040 991 960 991C880 991 800 991 720 991C640 991 560 991 480 991C400 991 320 991 240 991C160 991 80 991 40 991L0 991Z" fill="#9389ae"></path></svg>