<?xml version="1.0" standalone="no"?>
<!DOCTYPE svg PUBLIC "-//W3C//DTD SVG 20010904//EN"
 "http://www.w3.org/TR/2001/REC-SVG-20010904/DTD/svg10.dtd">
<svg version="1.0" xmlns="http://www.w3.org/2000/svg"
 width="500.000000pt" height="500.000000pt" viewBox="0 0 500.000000 500.000000"
 preserveAspectRatio="xMidYMid meet">

<g transform="translate(0.000000,500.000000) scale(0.100000,-0.100000)"
fill="#000000" stroke="none">
<path d="M2295 4974 c-335 -35 -615 -113 -891 -249 -402 -198 -728 -485 -979
-860 -211 -316 -340 -663 -397 -1070 -7 -50 -13 -185 -13 -305 0 -280 28 -475
102 -720 232 -768 818 -1377 1578 -1637 132 -45 311 -89 454 -110 162 -24 531
-24 694 0 1101 164 1943 1007 2114 2117 25 162 25 539 0 700 -87 553 -323
1025 -707 1410 -376 378 -862 623 -1400 705 -101 16 -467 28 -555 19z m545
-99 c249 -38 479 -109 705 -219 261 -128 462 -274 671 -487 357 -365 583 -822
660 -1334 25 -166 26 -523 1 -685 -55 -358 -183 -695 -374 -985 -100 -150
-166 -231 -301 -368 -379 -384 -860 -624 -1402 -699 -123 -17 -487 -17 -610 0
-542 75 -1021 314 -1402 699 -230 232 -397 485 -521 788 -443 1081 -30 2339
971 2958 305 189 659 308 1027 346 124 13 448 5 575 -14z"/>
<path d="M2367 4266 c-159 -67 -268 -187 -382 -420 -75 -153 -116 -269 -165
-460 -32 -126 -37 -140 -60 -147 -14 -4 -86 -21 -160 -39 -449 -108 -778 -302
-891 -527 -33 -65 -34 -73 -34 -178 0 -106 1 -113 35 -180 68 -136 227 -270
438 -371 120 -58 348 -133 507 -169 66 -15 121 -27 122 -28 1 -1 15 -61 32
-134 93 -405 269 -747 448 -869 166 -114 326 -114 494 -2 184 123 360 466 454
886 15 64 27 118 28 119 1 1 56 13 122 28 474 106 834 312 947 542 31 65 33
74 33 178 0 106 -1 113 -35 180 -112 223 -441 417 -890 525 -74 18 -146 35
-160 39 -23 7 -28 21 -60 147 -49 191 -90 307 -165 460 -106 218 -212 339
-355 408 -55 26 -78 31 -155 34 -77 2 -99 -1 -148 -22z m248 -106 c176 -76
348 -354 451 -728 39 -145 42 -176 17 -168 -10 2 -67 11 -128 18 -219 26 -914
14 -1027 -18 -26 -7 -23 20 12 150 100 374 265 651 442 742 68 35 158 37 233
4z m84 -970 c214 -12 409 -34 424 -49 12 -12 32 -139 48 -314 24 -262 8 -767
-29 -947 -8 -34 -9 -35 -77 -47 -289 -48 -830 -48 -1120 0 l-70 12 -12 70
c-35 217 -47 665 -24 913 16 164 37 302 48 313 19 19 290 46 583 57 19 1 122
-3 229 -8z m-939 -86 c0 -9 -8 -73 -17 -142 -24 -176 -24 -801 -1 -972 9 -63
14 -117 12 -119 -8 -9 -208 41 -329 81 -237 78 -412 177 -529 298 -158 164
-160 324 -5 485 146 152 376 267 709 354 133 35 160 37 160 15z m1647 -14
c333 -86 565 -202 712 -355 155 -161 153 -321 -5 -485 -143 -149 -375 -265
-692 -346 -163 -42 -176 -42 -168 -10 3 13 13 100 22 193 20 209 14 703 -10
883 -20 147 -20 150 3 150 11 0 73 -14 138 -30z m-1302 -1385 c205 -20 595
-20 800 0 86 8 168 18 181 21 32 8 32 -6 -10 -168 -103 -400 -276 -686 -465
-771 -59 -26 -153 -26 -212 0 -189 85 -362 372 -465 771 -42 162 -42 176 -10
168 13 -3 95 -13 181 -21z"/>
</g>
</svg>
