<?xml version="1.0" standalone="no"?>
<!DOCTYPE svg PUBLIC "-//W3C//DTD SVG 20010904//EN"
 "http://www.w3.org/TR/2001/REC-SVG-20010904/DTD/svg10.dtd">
<svg version="1.0" xmlns="http://www.w3.org/2000/svg"
 width="500.000000pt" height="500.000000pt" viewBox="0 0 500.000000 500.000000"
 preserveAspectRatio="xMidYMid meet">

<g transform="translate(0.000000,500.000000) scale(0.100000,-0.100000)"
fill="#9389AE" stroke="none">
<path d="M2295 4974 c-335 -35 -615 -113 -891 -249 -402 -198 -728 -485 -979
-860 -211 -316 -340 -663 -397 -1070 -7 -50 -13 -185 -13 -305 0 -280 28 -475
102 -720 232 -768 818 -1377 1578 -1637 132 -45 311 -89 454 -110 162 -24 531
-24 694 0 1101 164 1943 1007 2114 2117 25 162 25 539 0 700 -87 553 -323
1025 -707 1410 -376 378 -862 623 -1400 705 -101 16 -467 28 -555 19z m492
-89 c180 -24 303 -52 468 -106 848 -281 1462 -1001 1616 -1894 30 -172 37
-514 15 -685 -31 -230 -74 -402 -152 -600 -263 -664 -806 -1177 -1483 -1400
-260 -86 -475 -120 -756 -120 -281 0 -496 34 -756 120 -768 253 -1366 886
-1570 1664 -61 236 -73 337 -74 621 0 289 10 374 70 611 244 955 1038 1654
2030 1788 141 19 447 20 592 1z"/>
<path d="M2395 4273 c-249 -90 -443 -387 -566 -872 -22 -85 -41 -157 -43 -159
-2 -2 -55 -15 -117 -29 -367 -82 -654 -211 -820 -370 -91 -87 -134 -149 -160
-234 -35 -111 -17 -234 50 -337 41 -65 161 -179 241 -231 175 -114 518 -241
747 -277 24 -4 46 -12 51 -18 5 -6 16 -49 26 -96 40 -196 132 -462 207 -597
116 -208 241 -331 381 -375 322 -100 625 230 787 857 16 60 32 131 36 157 8
55 16 63 70 72 245 42 570 163 745 277 80 52 200 166 241 231 67 103 85 226
50 337 -26 85 -69 147 -160 234 -166 159 -453 288 -820 371 -111 24 -130 34
-131 66 0 30 -52 218 -91 334 -110 323 -264 543 -443 632 -95 46 -198 56 -281
27z m220 -113 c176 -76 348 -354 451 -728 39 -145 42 -176 17 -168 -10 2 -67
11 -128 18 -219 26 -914 14 -1027 -18 -26 -7 -23 20 12 150 100 374 265 651
442 742 68 35 158 37 233 4z m84 -970 c214 -12 409 -34 424 -49 12 -12 32
-139 48 -314 24 -262 8 -767 -29 -947 -8 -34 -9 -35 -77 -47 -289 -48 -830
-48 -1120 0 l-70 12 -12 70 c-35 217 -47 665 -24 913 16 164 37 302 48 313 19
19 290 46 583 57 19 1 122 -3 229 -8z m-939 -86 c0 -9 -8 -73 -17 -142 -24
-176 -24 -801 -1 -972 9 -63 14 -117 12 -119 -8 -9 -208 41 -329 81 -237 78
-412 177 -529 298 -158 164 -160 324 -5 485 146 152 376 267 709 354 133 35
160 37 160 15z m1647 -14 c333 -86 565 -202 712 -355 155 -161 153 -321 -5
-485 -143 -149 -375 -265 -692 -346 -163 -42 -176 -42 -168 -10 3 13 13 100
22 193 20 209 14 703 -10 883 -20 147 -20 150 3 150 11 0 73 -14 138 -30z
m-1302 -1385 c205 -20 595 -20 800 0 86 8 168 18 181 21 32 8 32 -6 -10 -168
-103 -400 -276 -686 -465 -771 -59 -26 -153 -26 -212 0 -189 85 -362 372 -465
771 -42 162 -42 176 -10 168 13 -3 95 -13 181 -21z"/>
</g>
</svg>
